# xmcd
#
# Track frame offsets:
#	183
#	11133
#	24133
#	38183
#	53033
#	67808
#	82408
#	92633
#	105958
#	127808
#	141458
#	155433
#	169133
#	180308
#	195083
#	209983
#
# Disc length: 2983 seconds
#
# Revision: 5
# Processed by: cddbd v1.5.2PL0 Copyright (c) Steve Scherf et al.
# Submitted via: audiograbber 1.83.01
#
DISCID=cd0ba510
DTITLE=Tom Astor - Kameraden der Straße
DYEAR=1994
DGENRE=
TTITLE0=Tom Astor - Zwei Trucker wie wir
TTITLE1=Tom Astor - Nur auf der Straße
TTITLE2=Tom Astor - Trucker Lady
TTITLE3=Tom Astor - Truckers Glück
TTITLE4=Tom Astor - Geistertruck
TTITLE5=Tom Astor - Devil
TTITLE6=Tom Astor - Übermüdung tötet
TTITLE7=Tom Astor - Partner fahr rechts
TTITLE8=Tom Astor - Kameraden der Straße
TTITLE9=Tom Astor - Der kleine Trucker
TTITLE10=Tom Astor - Rollende Giganten
TTITLE11=Tom Astor - Irgendwo am Horizont
TTITLE12=Tom Astor - Panamerican Highway
TTITLE13=Tom Astor - Und nachts wenn alles schlief
TTITLE14=Tom Astor - Das schöne Mädchen von der Autobahn
TTITLE15=Tom Astor - Viel erlebt und viel versäumt ( Bank of the Ohio )
EXTD=
EXTT0=
EXTT1=
EXTT2=
EXTT3=
EXTT4=
EXTT5=
EXTT6=
EXTT7=
EXTT8=
EXTT9=
EXTT10=Track 11 korrigiert
EXTT11=
EXTT12=Track 12 korrigiert
EXTT13=
EXTT14=
EXTT15=
PLAYORDER=
